<svg width="18" height="15" viewBox="0 0 18 15" fill="none" xmlns="http://www.w3.org/2000/svg">
<path d="M2.75977 0.626953C2.66602 0.626953 2.58105 0.641602 2.50488 0.670898C2.42871 0.700195 2.36133 0.744141 2.30273 0.802734C2.24414 0.873047 2.19727 0.946289 2.16211 1.02246C2.12695 1.09863 2.10938 1.17773 2.10938 1.25977V10.9277C2.10938 11.1035 2.17383 11.2559 2.30273 11.3848C2.43164 11.5137 2.58398 11.5781 2.75977 11.5781C3.13477 11.5781 3.5625 11.6016 4.04297 11.6484C4.52344 11.707 5.02148 11.8125 5.53711 11.9648C6.05273 12.1172 6.56836 12.3281 7.08398 12.5977C7.59961 12.8789 8.07422 13.248 8.50781 13.7051V3.59766C8.50781 3.53906 8.49902 3.48047 8.48145 3.42188C8.46387 3.36328 8.44336 3.31055 8.41992 3.26367C8.05664 2.68945 7.62891 2.23242 7.13672 1.89258C6.64453 1.54102 6.1377 1.27148 5.61621 1.08398C5.09473 0.896484 4.58203 0.773438 4.07812 0.714844C3.57422 0.65625 3.13477 0.626953 2.75977 0.626953ZM15.8906 10.9277V1.25977C15.8906 1.17773 15.873 1.09863 15.8379 1.02246C15.8027 0.946289 15.7559 0.873047 15.6973 0.802734C15.6387 0.744141 15.5713 0.700195 15.4951 0.670898C15.4189 0.641602 15.334 0.626953 15.2402 0.626953C14.8652 0.626953 14.4258 0.65625 13.9219 0.714844C13.418 0.773438 12.9053 0.896484 12.3838 1.08398C11.8623 1.27148 11.3555 1.54102 10.8633 1.89258C10.3711 2.23242 9.94336 2.68945 9.58008 3.26367C9.55664 3.31055 9.53613 3.36328 9.51855 3.42188C9.50098 3.48047 9.49219 3.53906 9.49219 3.59766V13.7051C9.92578 13.248 10.4004 12.8789 10.916 12.5977C11.4316 12.3281 11.9473 12.1172 12.4629 11.9648C12.9785 11.8125 13.4766 11.707 13.957 11.6484C14.4375 11.6016 14.8652 11.5781 15.2402 11.5781C15.416 11.5781 15.5684 11.5137 15.6973 11.3848C15.8262 11.2559 15.8906 11.1035 15.8906 10.9277ZM17.3496 2.85938H16.8926V10.9277C16.8926 11.3848 16.7314 11.7715 16.4092 12.0879C16.0869 12.4043 15.6973 12.5625 15.2402 12.5625C14.9238 12.5742 14.5664 12.5977 14.168 12.6328C13.7578 12.6797 13.3359 12.7617 12.9023 12.8789C12.4688 12.9961 12.0352 13.1602 11.6016 13.3711C11.168 13.5938 10.7637 13.8809 10.3887 14.2324C11.0332 14.0684 11.6777 13.9688 12.3223 13.9336C12.9668 13.8984 13.5879 13.8955 14.1855 13.9248C14.7832 13.9541 15.3398 14.0156 15.8555 14.1094C16.3711 14.1914 16.8223 14.2734 17.209 14.3555C17.3027 14.3789 17.3994 14.3789 17.499 14.3555C17.5986 14.332 17.6836 14.291 17.7539 14.2324C17.8359 14.1738 17.8975 14.1006 17.9385 14.0127C17.9795 13.9248 18 13.834 18 13.7402V3.49219C18 3.31641 17.9385 3.16699 17.8154 3.04395C17.6924 2.9209 17.5371 2.85938 17.3496 2.85938ZM1.10742 10.9277V2.85938H0.650391C0.462891 2.85938 0.307617 2.9209 0.18457 3.04395C0.0615234 3.16699 0 3.31641 0 3.49219V13.7402C0 13.834 0.0205078 13.9248 0.0615234 14.0127C0.102539 14.1006 0.164062 14.1738 0.246094 14.2324C0.316406 14.291 0.401367 14.332 0.500977 14.3555C0.600586 14.3789 0.697266 14.3789 0.791016 14.3555C1.17773 14.2734 1.62891 14.1914 2.14453 14.1094C2.66016 14.0156 3.2168 13.9541 3.81445 13.9248C4.41211 13.8955 5.0332 13.8984 5.67773 13.9336C6.32227 13.9688 6.9668 14.0684 7.61133 14.2324C7.23633 13.8809 6.83203 13.5938 6.39844 13.3711C5.96484 13.1602 5.53125 12.9961 5.09766 12.8789C4.66406 12.7617 4.24219 12.6797 3.83203 12.6328C3.43359 12.5977 3.07617 12.5742 2.75977 12.5625C2.30273 12.5625 1.91309 12.4043 1.59082 12.0879C1.26855 11.7715 1.10742 11.3848 1.10742 10.9277Z" fill="white"/>
</svg>
