<svg width="31" height="42" viewBox="0 0 31 42" fill="none" xmlns="http://www.w3.org/2000/svg">
<path d="M29.8145 0.193115H5.45117C4.0293 0.193115 2.80566 0.698975 1.78027 1.71069C0.754883 2.72241 0.242188 3.95288 0.242188 5.4021V36.9841C0.242188 38.406 0.754883 39.6296 1.78027 40.655C2.80566 41.6804 4.0293 42.1931 5.45117 42.1931H29.8145C30.0605 42.1931 30.2793 42.0974 30.4707 41.906C30.6621 41.7146 30.7578 41.4958 30.7578 41.2498C30.7578 41.2498 30.7578 41.2429 30.7578 41.2292C30.7578 41.2156 30.7578 41.2087 30.7578 41.2087C30.7578 41.1814 30.7578 41.1677 30.7578 41.1677C30.7578 41.1677 30.7578 41.1541 30.7578 41.1267V1.13647C30.7578 0.863037 30.6621 0.637451 30.4707 0.459717C30.2793 0.281982 30.0605 0.193115 29.8145 0.193115ZM4.54883 40.1833C3.83789 39.9919 3.25684 39.6023 2.80566 39.0144C2.35449 38.4265 2.12891 37.7498 2.12891 36.9841V9.38062C2.45703 9.65405 2.82617 9.89331 3.23633 10.0984C3.64648 10.3035 4.08398 10.447 4.54883 10.5291V40.1833ZM5.45117 8.72437C4.54883 8.72437 3.76953 8.39624 3.11328 7.73999C2.45703 7.08374 2.12891 6.30444 2.12891 5.4021C2.12891 4.47241 2.45703 3.67944 3.11328 3.02319C3.76953 2.36694 4.54883 2.03882 5.45117 2.03882H25.8359C25.4531 2.50366 25.1523 3.02319 24.9336 3.59741C24.7148 4.17163 24.6055 4.77319 24.6055 5.4021C24.6055 6.03101 24.7148 6.63257 24.9336 7.20679C25.1523 7.78101 25.4531 8.28687 25.8359 8.72437H5.45117ZM22.8008 10.6111V16.0662L21.6934 15.2458C21.5293 15.1365 21.3447 15.0818 21.1396 15.0818C20.9346 15.0818 20.75 15.1365 20.5859 15.2458L19.4375 16.1072V10.6111H22.8008ZM28.8711 40.3064H6.39453V10.6111H17.5918V17.9529C17.5918 18.1169 17.6396 18.2742 17.7354 18.4246C17.8311 18.575 17.9473 18.6912 18.084 18.7732C18.166 18.8005 18.2412 18.8279 18.3096 18.8552C18.3779 18.8826 18.4531 18.8962 18.5352 18.8962C18.6172 18.8962 18.7061 18.8757 18.8018 18.8347C18.8975 18.7937 18.9863 18.7458 19.0684 18.6912L21.1602 17.1736L23.1699 18.6912C23.334 18.8005 23.498 18.8621 23.6621 18.8757C23.8262 18.8894 23.9902 18.8552 24.1543 18.7732C24.3184 18.6912 24.4482 18.575 24.5439 18.4246C24.6396 18.2742 24.6875 18.1169 24.6875 17.9529V10.6111H28.8711V40.3064ZM28.8711 8.60132C28.1875 8.40991 27.6133 8.02026 27.1484 7.43237C26.6836 6.84448 26.4512 6.16772 26.4512 5.4021C26.4512 4.63647 26.6836 3.95972 27.1484 3.37183C27.6133 2.78394 28.1875 2.39429 28.8711 2.20288V8.60132ZM22.2266 22.5466H13.0391C12.793 22.5466 12.5811 22.6355 12.4033 22.8132C12.2256 22.991 12.1367 23.2029 12.1367 23.449C12.1367 23.7224 12.2256 23.948 12.4033 24.1257C12.5811 24.3035 12.793 24.3923 13.0391 24.3923H22.2266C22.4727 24.3923 22.6914 24.3035 22.8828 24.1257C23.0742 23.948 23.1699 23.7224 23.1699 23.449C23.1699 23.2029 23.0742 22.991 22.8828 22.8132C22.6914 22.6355 22.4727 22.5466 22.2266 22.5466ZM24.8105 28.3708H10.4551C10.1816 28.3708 9.95605 28.4666 9.77832 28.658C9.60059 28.8494 9.51172 29.0681 9.51172 29.3142C9.51172 29.5876 9.60059 29.8132 9.77832 29.991C9.95605 30.1687 10.1816 30.2576 10.4551 30.2576H24.8105C25.084 30.2576 25.3096 30.1687 25.4873 29.991C25.665 29.8132 25.7539 29.5876 25.7539 29.3142C25.7539 29.0681 25.665 28.8494 25.4873 28.658C25.3096 28.4666 25.084 28.3708 24.8105 28.3708Z" fill="white"/>
</svg>
