<svg width="39" height="37" viewBox="0 0 39 37" fill="none" xmlns="http://www.w3.org/2000/svg">
<path d="M31.0664 36.5681C30.957 36.5681 30.8613 36.5544 30.7793 36.5271C30.6973 36.4998 30.6152 36.4724 30.5332 36.4451L19.5 30.4158L8.4668 36.4451C8.27539 36.5271 8.08398 36.5613 7.89258 36.5476C7.70117 36.5339 7.52344 36.4724 7.35938 36.363C7.19531 36.2537 7.07227 36.1033 6.99023 35.9119C6.9082 35.7205 6.88086 35.5291 6.9082 35.3376L8.91797 23.2791L0.919922 15.24C0.783203 15.1033 0.6875 14.9392 0.632812 14.7478C0.578125 14.5564 0.578125 14.365 0.632812 14.1736C0.714844 14.0095 0.824219 13.8591 0.960938 13.7224C1.09766 13.5857 1.27539 13.5037 1.49414 13.4763L13.5527 11.4666L18.5566 1.45874C18.6387 1.26733 18.7686 1.11694 18.9463 1.00757C19.124 0.898193 19.3086 0.843506 19.5 0.843506C19.6914 0.843506 19.876 0.898193 20.0537 1.00757C20.2314 1.11694 20.3613 1.26733 20.4434 1.45874L25.4473 11.4666L37.5059 13.4763C37.7246 13.5037 37.9023 13.5857 38.0391 13.7224C38.1758 13.8591 38.2852 14.0095 38.3672 14.1736C38.4219 14.365 38.4219 14.5564 38.3672 14.7478C38.3125 14.9392 38.2168 15.1033 38.0801 15.24L30.082 23.2791L32.0918 35.3376C32.1191 35.5291 32.0918 35.7205 32.0098 35.9119C31.9277 36.1033 31.8047 36.2537 31.6406 36.363C31.5586 36.4177 31.4697 36.4656 31.374 36.5066C31.2783 36.5476 31.1758 36.5681 31.0664 36.5681ZM19.5 28.1599C19.582 28.1599 19.6641 28.1736 19.7461 28.2009C19.8281 28.2283 19.9102 28.2556 19.9922 28.283L29.6719 33.574L27.9082 23.074C27.8809 22.9099 27.8945 22.7458 27.9492 22.5818C28.0039 22.4177 28.0859 22.281 28.1953 22.1716L35.168 15.199L24.5859 13.4353C24.4219 13.408 24.2715 13.3464 24.1348 13.2507C23.998 13.155 23.8887 13.0251 23.8066 12.8611L19.5 4.2478L15.1934 12.8611C15.1113 13.0251 15.002 13.155 14.8652 13.2507C14.7285 13.3464 14.5781 13.408 14.4141 13.4353L3.83203 15.199L10.8047 22.1716C10.9141 22.281 10.9961 22.4177 11.0508 22.5818C11.1055 22.7458 11.1191 22.9099 11.0918 23.074L9.32812 33.574L19.0078 28.283C19.0898 28.2556 19.1719 28.2283 19.2539 28.2009C19.3359 28.1736 19.418 28.1599 19.5 28.1599Z" fill="white"/>
</svg>
