<svg width="24" height="47" viewBox="0 0 24 47" fill="none" xmlns="http://www.w3.org/2000/svg">
<path d="M12.1187 0.640015C15.2632 0.640015 17.8687 3.24548 17.8687 6.39001C17.8687 9.62439 15.2632 12.14 12.1187 12.14C8.88433 12.14 6.3687 9.62439 6.3687 6.39001C6.3687 3.24548 8.88433 0.640015 12.1187 0.640015ZM22.8101 32.5345C23.1695 33.8822 22.0914 35.14 20.7437 35.14H15.7125V44.4838C15.7125 45.7416 14.7242 46.64 13.5562 46.64H10.6812C9.42339 46.64 8.52495 45.7416 8.52495 44.4838V35.14H3.4937C2.0562 35.14 0.978077 33.8822 1.33745 32.5345L5.64995 15.2845C5.91948 14.2963 6.72808 13.5775 7.8062 13.5775H8.79448C10.9507 14.5658 13.2867 14.5658 15.3531 13.5775H16.4312C17.4195 13.5775 18.2281 14.2963 18.4976 15.2845L22.8101 32.5345Z" fill="white"/>
</svg>
