<svg width="49" height="43" viewBox="0 0 49 43" fill="none" xmlns="http://www.w3.org/2000/svg">
<path d="M5.78635 26.7048C5.70432 26.6228 5.60178 26.5613 5.47873 26.5203C5.35568 26.4792 5.23947 26.4587 5.1301 26.4587C4.99338 26.4587 4.87033 26.4792 4.76096 26.5203C4.65158 26.5613 4.55588 26.6228 4.47385 26.7048C4.39182 26.7869 4.33029 26.8894 4.28928 27.0125C4.24826 27.1355 4.22775 27.2517 4.22775 27.3611C4.22775 27.4978 4.24826 27.6208 4.28928 27.7302C4.33029 27.8396 4.39182 27.9353 4.47385 28.0173C4.55588 28.0994 4.65158 28.1609 4.76096 28.2019C4.87033 28.2429 4.99338 28.2634 5.1301 28.2634C5.23947 28.2634 5.35568 28.2429 5.47873 28.2019C5.60178 28.1609 5.70432 28.0994 5.78635 28.0173C5.86838 27.9353 5.9299 27.8396 5.97092 27.7302C6.01193 27.6208 6.03244 27.4978 6.03244 27.3611C6.08713 27.2517 6.09396 27.1355 6.05295 27.0125C6.01193 26.8894 5.92307 26.7869 5.78635 26.7048ZM48.9348 29.9451C48.8528 29.699 48.7024 29.5007 48.4836 29.3503C48.2649 29.2 48.0324 29.1658 47.7863 29.2478L41.3469 31.0115L37.2863 15.8767L43.7258 14.1541C43.9719 14.072 44.1633 13.9148 44.3 13.6824C44.4367 13.45 44.4641 13.2107 44.382 12.9646C44.3 12.7185 44.1496 12.5271 43.9309 12.3904C43.7121 12.2537 43.4797 12.2263 43.2336 12.3083L35.8918 14.3181C35.7278 14.3455 35.5842 14.4138 35.4612 14.5232C35.3381 14.6326 35.2629 14.7556 35.2356 14.8923L33.3899 13.8259C32.8703 13.4705 32.2824 13.2722 31.6262 13.2312C30.9699 13.1902 30.3547 13.2654 29.7805 13.4568L27.9348 14.072C27.3606 14.2634 26.8137 14.5437 26.2942 14.9128C25.7746 15.282 25.3371 15.7126 24.9817 16.2048L22.3156 14.7283C21.7961 14.4001 21.2287 14.2087 20.6135 14.1541C19.9983 14.0994 19.3899 14.1814 18.7883 14.4001L13.6613 16.2048L13.8254 15.5486C13.9074 15.3025 13.8801 15.0701 13.7434 14.8513C13.6067 14.6326 13.4016 14.4822 13.1281 14.4001L5.86838 12.3083C5.62228 12.2263 5.38986 12.2537 5.17111 12.3904C4.95236 12.5271 4.80197 12.7185 4.71994 12.9646C4.63791 13.2107 4.66525 13.45 4.80197 13.6824C4.93869 13.9148 5.1301 14.072 5.37619 14.1541L11.8156 15.8767L11.4055 17.4353L7.7551 31.0115L1.31564 29.2478C1.06955 29.1658 0.837128 29.2 0.618378 29.3503C0.399628 29.5007 0.249237 29.699 0.167206 29.9451C0.0851746 30.1912 0.112518 30.4236 0.249237 30.6423C0.385956 30.8611 0.577362 31.0115 0.823456 31.0935L8.20627 33.0623C8.23361 33.0623 8.26779 33.0623 8.30881 33.0623C8.34982 33.0623 8.39767 33.0623 8.45236 33.0623C8.61642 33.0623 8.75998 33.0281 8.88303 32.9597C9.00607 32.8914 9.10861 32.7888 9.19064 32.6521L12.5539 33.5544C12.4719 34.1013 12.5676 34.6345 12.841 35.1541C13.1145 35.6736 13.4973 36.0837 13.9895 36.3845C14.1809 36.4939 14.3996 36.5896 14.6457 36.6716C14.8918 36.7537 15.1379 36.7947 15.384 36.7947C15.466 36.7947 15.5617 36.7878 15.6711 36.7742C15.7805 36.7605 15.8762 36.74 15.9582 36.7126C16.0949 37.0408 16.2658 37.3416 16.4709 37.615C16.676 37.8884 16.9426 38.1072 17.2707 38.2712C17.4895 38.408 17.7151 38.5105 17.9475 38.5789C18.1799 38.6472 18.4328 38.6814 18.7063 38.6814C18.7883 38.6814 18.884 38.6814 18.9934 38.6814C19.1028 38.6814 19.1985 38.6541 19.2805 38.5994C19.3899 38.9275 19.5539 39.2283 19.7727 39.5017C19.9914 39.7751 20.2649 40.0076 20.593 40.199C20.7844 40.3083 21.0031 40.4041 21.2492 40.4861C21.4953 40.5681 21.7414 40.6091 21.9875 40.6091C22.0695 40.6091 22.1653 40.6023 22.2746 40.5886C22.384 40.575 22.4797 40.5544 22.5617 40.5271C22.6985 40.8552 22.8694 41.156 23.0744 41.4294C23.2795 41.7029 23.5598 41.9216 23.9153 42.0857C24.1067 42.1951 24.3254 42.2908 24.5715 42.3728C24.8176 42.4548 25.0637 42.4958 25.3098 42.4958C25.7199 42.4958 26.1096 42.4138 26.4787 42.2498C26.8479 42.0857 27.1692 41.8396 27.4426 41.5115L27.5246 41.5935C27.7434 41.7029 27.969 41.7986 28.2014 41.8806C28.4338 41.9626 28.6731 42.0037 28.9192 42.0037C29.4387 42.0037 29.924 41.8806 30.3752 41.6345C30.8264 41.3884 31.175 41.0466 31.4211 40.6091C31.5852 40.281 31.7014 39.946 31.7697 39.6042C31.8381 39.2625 31.8313 38.9275 31.7492 38.5994C32.0774 38.49 32.3781 38.3259 32.6516 38.1072C32.925 37.8884 33.1438 37.615 33.3078 37.2869C33.4719 36.9861 33.5881 36.6648 33.6565 36.323C33.7248 35.9812 33.718 35.6462 33.636 35.3181C33.718 35.2634 33.8 35.2292 33.882 35.2156C33.9641 35.2019 34.0461 35.1814 34.1281 35.1541L39.9524 32.8162C40.0344 32.8982 40.1301 32.9597 40.2395 33.0007C40.3488 33.0417 40.4719 33.0623 40.6086 33.0623C40.636 33.0623 40.6701 33.0623 40.7112 33.0623C40.7522 33.0623 40.8 33.0623 40.8547 33.0623L48.1965 31.0935C48.4973 31.0388 48.7092 30.8953 48.8322 30.6628C48.9553 30.4304 48.9895 30.1912 48.9348 29.9451ZM17.4348 32.488L16.2863 34.4568C16.177 34.7302 15.9924 34.8875 15.7326 34.9285C15.4729 34.9695 15.2199 34.9353 14.9738 34.8259C14.7278 34.6892 14.5774 34.491 14.5227 34.2312C14.468 33.9714 14.509 33.7185 14.6457 33.4724L15.7942 31.5037C15.8762 31.3396 15.9924 31.2166 16.1428 31.1345C16.2932 31.0525 16.4504 31.0115 16.6145 31.0115C16.6965 31.0115 16.7785 31.0183 16.8606 31.032C16.9426 31.0457 17.0246 31.0935 17.1067 31.1755C17.2434 31.2576 17.3459 31.3396 17.4143 31.4216C17.4826 31.5037 17.5168 31.613 17.5168 31.7498C17.5715 31.9138 17.5852 32.0574 17.5578 32.1804C17.5305 32.3035 17.4895 32.406 17.4348 32.488ZM20.757 34.3748L19.6086 36.3845C19.5266 36.4939 19.4377 36.5896 19.342 36.6716C19.2463 36.7537 19.1438 36.7947 19.0344 36.7947C18.8977 36.822 18.7678 36.822 18.6447 36.7947C18.5217 36.7673 18.3918 36.74 18.2551 36.7126C18.1457 36.6306 18.05 36.5417 17.968 36.446C17.886 36.3503 17.8449 36.2478 17.8449 36.1384C17.8176 36.0017 17.8176 35.8718 17.8449 35.7488C17.8723 35.6257 17.8996 35.5095 17.927 35.4001L19.1164 33.3904C19.1985 33.2263 19.3147 33.1033 19.4651 33.0212C19.6154 32.9392 19.7727 32.8982 19.9367 32.8982C20.0188 32.8982 20.1008 32.905 20.1828 32.9187C20.2649 32.9324 20.3469 32.9802 20.4289 33.0623C20.5383 33.1443 20.634 33.2332 20.716 33.3289C20.7981 33.4246 20.8391 33.5271 20.8391 33.6365C20.8664 33.8005 20.8664 33.9441 20.8391 34.0671C20.8117 34.1902 20.7844 34.2927 20.757 34.3748ZM24.0793 36.3845L22.8899 38.3533C22.7805 38.5994 22.5959 38.7498 22.3362 38.8044C22.0764 38.8591 21.8235 38.8181 21.5774 38.6814C21.3313 38.572 21.1809 38.3875 21.1262 38.1277C21.0715 37.8679 21.1125 37.615 21.2492 37.3689L22.3977 35.4001C22.4797 35.2634 22.5686 35.1609 22.6643 35.0925C22.76 35.0242 22.8625 34.99 22.9719 34.99C23.0266 34.99 23.0744 34.99 23.1154 34.99C23.1565 34.99 23.1906 34.99 23.218 34.99C23.3 34.99 23.382 35.0037 23.4641 35.031C23.5461 35.0583 23.6418 35.0994 23.7512 35.1541C23.8606 35.2361 23.9563 35.3181 24.0383 35.4001C24.1203 35.4822 24.1613 35.5916 24.1613 35.7283C24.1887 35.8103 24.1887 35.906 24.1613 36.0154C24.134 36.1248 24.1067 36.2478 24.0793 36.3845ZM27.3606 38.2712L26.2121 40.281C26.0754 40.5271 25.884 40.6707 25.6379 40.7117C25.3918 40.7527 25.1457 40.7185 24.8996 40.6091C24.6535 40.4724 24.5031 40.2742 24.4485 40.0144C24.3938 39.7546 24.4348 39.5017 24.5715 39.2556L25.7199 37.2869C25.802 37.1228 25.9182 36.9998 26.0686 36.9177C26.219 36.8357 26.3762 36.7947 26.5403 36.7947C26.6223 36.7947 26.7043 36.8015 26.7863 36.8152C26.8684 36.8289 26.9504 36.8767 27.0324 36.9587C27.2512 37.0681 27.3947 37.2527 27.4631 37.5125C27.5315 37.7722 27.4973 38.0251 27.3606 38.2712ZM29.8625 39.6658C29.7258 39.9392 29.5276 40.1101 29.2678 40.1785C29.008 40.2468 28.7551 40.1853 28.509 39.9939H28.427L28.9192 39.1736C29.0285 39.0642 29.1037 38.9275 29.1447 38.7634C29.1858 38.5994 29.2336 38.4353 29.2883 38.2712L29.4524 38.3533C29.6985 38.5173 29.8557 38.7292 29.924 38.989C29.9924 39.2488 29.9719 39.4744 29.8625 39.6658ZM35.7278 32.488C35.7278 32.406 35.7209 32.324 35.7072 32.2419C35.6936 32.1599 35.6731 32.0779 35.6457 31.9958C35.9738 31.8591 36.2746 31.6882 36.5481 31.4832C36.8215 31.2781 37.0403 31.0115 37.2043 30.6833C37.6145 29.9724 37.717 29.241 37.5119 28.489C37.3069 27.7371 36.8488 27.1697 36.1379 26.7869L32.2414 24.572C31.9953 24.4353 31.7424 24.4011 31.4826 24.4695C31.2229 24.5378 31.0383 24.6814 30.9289 24.9001C30.7922 25.1462 30.758 25.3923 30.8264 25.6384C30.8947 25.8845 31.0383 26.0759 31.257 26.2126L35.1535 28.4275C35.3996 28.5642 35.5432 28.7556 35.5842 29.0017C35.6252 29.2478 35.591 29.5076 35.4817 29.781C35.3449 30.0271 35.1535 30.1707 34.9074 30.2117C34.6613 30.2527 34.4016 30.2185 34.1281 30.1091L30.2727 27.8533C30.0266 27.7439 29.7737 27.7234 29.5139 27.7917C29.2541 27.8601 29.0559 27.99 28.9192 28.1814C28.8098 28.4275 28.7893 28.6804 28.8576 28.9402C28.926 29.2 29.0695 29.3845 29.2883 29.4939L33.1438 31.7498C33.2805 31.8318 33.383 31.9138 33.4514 31.9958C33.5197 32.0779 33.5539 32.1873 33.5539 32.324C33.5539 32.4607 33.5539 32.5906 33.5539 32.7136C33.5539 32.8367 33.5266 32.9529 33.4719 33.0623C33.4445 33.1443 33.4035 33.2126 33.3488 33.2673C33.2942 33.322 33.2258 33.363 33.1438 33.3904C33.1164 33.3904 33.0959 33.4041 33.0822 33.4314C33.0686 33.4587 33.0344 33.4724 32.9797 33.4724C32.8703 33.5271 32.7404 33.5476 32.5901 33.5339C32.4397 33.5203 32.2961 33.4724 32.1594 33.3904L28.2629 31.1755C28.0168 31.0388 27.7707 31.0046 27.5246 31.073C27.2785 31.1414 27.0871 31.2849 26.9504 31.5037C26.841 31.7498 26.8205 32.0027 26.8889 32.2625C26.9572 32.5222 27.0871 32.7068 27.2785 32.8162L31.175 35.072C31.4211 35.1814 31.5715 35.366 31.6262 35.6257C31.6809 35.8855 31.6399 36.1384 31.5031 36.3845C31.4211 36.4939 31.3322 36.5896 31.2365 36.6716C31.1408 36.7537 31.0383 36.7947 30.9289 36.7947C30.7922 36.822 30.6623 36.822 30.5393 36.7947C30.4162 36.7673 30.3 36.74 30.1906 36.7126L27.6887 35.2361C27.3606 35.072 27.0324 34.949 26.7043 34.8669C26.3762 34.7849 26.0481 34.7986 25.7199 34.908C25.5832 34.5525 25.4123 34.238 25.2072 33.9646C25.0022 33.6912 24.7356 33.4724 24.4074 33.3083C24.1067 33.1443 23.7785 33.0281 23.4231 32.9597C23.0676 32.8914 22.7258 32.8982 22.3977 32.9802C22.2883 32.6521 22.1242 32.3513 21.9055 32.0779C21.6867 31.8044 21.4133 31.5857 21.0852 31.4216C20.757 31.2576 20.4289 31.1414 20.1008 31.073C19.7727 31.0046 19.4445 31.0115 19.1164 31.0935C18.9797 30.7654 18.802 30.4646 18.5832 30.1912C18.3645 29.9177 18.091 29.6853 17.7629 29.4939C17.0793 29.0837 16.3547 28.988 15.5891 29.2068C14.8235 29.4255 14.2629 29.8904 13.9074 30.6013L13.3332 31.9138L9.68283 30.9294L13.0461 18.3376L19.4445 16.1228C19.7727 15.9861 20.094 15.9382 20.4084 15.9792C20.7229 16.0203 21.0305 16.1228 21.3313 16.2869L23.8332 17.7634L21.9055 20.9216C21.55 21.5505 21.4133 22.2136 21.4953 22.9109C21.5774 23.6082 21.8781 24.2166 22.3977 24.7361C22.6985 25.0095 23.0403 25.2283 23.4231 25.3923C23.8059 25.5564 24.1887 25.6384 24.5715 25.6384C24.9817 25.6384 25.3645 25.5564 25.7199 25.3923C26.0754 25.2283 26.4035 25.0095 26.7043 24.7361L31.5031 19.9373C31.7219 19.7732 31.8313 19.5476 31.8313 19.2605C31.8313 18.9734 31.7219 18.7478 31.5031 18.5837C31.3391 18.3923 31.1203 18.2966 30.8469 18.2966C30.5735 18.2966 30.3547 18.3923 30.1906 18.5837L25.3918 23.3826C25.1457 23.6287 24.8586 23.7517 24.5305 23.7517C24.2024 23.7517 23.9426 23.6287 23.7512 23.3826C23.5324 23.1912 23.4026 22.9587 23.3615 22.6853C23.3205 22.4119 23.382 22.1521 23.5461 21.906L26.2121 17.6814C26.5129 17.2439 26.8615 16.8748 27.258 16.574C27.6545 16.2732 28.0715 16.0408 28.509 15.8767L30.3547 15.3025C30.6828 15.1658 31.0383 15.1179 31.4211 15.1589C31.8039 15.2 32.1594 15.3025 32.4875 15.4666L35.7278 17.2712L39.3371 31.0115L35.7278 32.488ZM44.5461 26.7048C44.4641 26.6228 44.3684 26.5613 44.259 26.5203C44.1496 26.4792 44.0266 26.4587 43.8899 26.4587C43.7805 26.4587 43.6643 26.4792 43.5412 26.5203C43.4182 26.5613 43.3156 26.6228 43.2336 26.7048C43.1516 26.7869 43.0901 26.8894 43.049 27.0125C43.008 27.1355 42.9875 27.2517 42.9875 27.3611C42.9875 27.4978 43.008 27.6208 43.049 27.7302C43.0901 27.8396 43.1516 27.9353 43.2336 28.0173C43.3156 28.0994 43.4182 28.1609 43.5412 28.2019C43.6643 28.2429 43.7805 28.2634 43.8899 28.2634C44.0266 28.2634 44.1496 28.2429 44.259 28.2019C44.3684 28.1609 44.4641 28.0994 44.5461 28.0173C44.6281 27.9353 44.6965 27.8396 44.7512 27.7302C44.8059 27.6208 44.8332 27.4978 44.8332 27.3611C44.8606 27.2517 44.8401 27.1355 44.7717 27.0125C44.7033 26.8894 44.6281 26.7869 44.5461 26.7048ZM24.5715 4.06421C24.3254 4.06421 24.093 4.15308 23.8742 4.33081C23.6555 4.50854 23.5461 4.7478 23.5461 5.04858V9.60132C23.5461 9.84741 23.6418 10.073 23.8332 10.2781C24.0246 10.4832 24.2707 10.5857 24.5715 10.5857C24.8176 10.5857 25.0432 10.49 25.2483 10.2986C25.4533 10.1072 25.5559 9.87476 25.5559 9.60132V5.04858C25.5012 4.7478 25.385 4.50854 25.2072 4.33081C25.0295 4.15308 24.8176 4.06421 24.5715 4.06421ZM25.2278 0.906006C25.1457 0.823975 25.0432 0.762451 24.9201 0.721436C24.7971 0.68042 24.6809 0.659912 24.5715 0.659912C24.4348 0.659912 24.3117 0.68042 24.2024 0.721436C24.093 0.762451 23.9973 0.823975 23.9153 0.906006C23.8332 0.988037 23.7649 1.09058 23.7102 1.21362C23.6555 1.33667 23.6281 1.45288 23.6281 1.56226C23.6281 1.69897 23.6555 1.82202 23.7102 1.9314C23.7649 2.04077 23.8332 2.13647 23.9153 2.21851C23.9973 2.30054 24.093 2.36206 24.2024 2.40308C24.3117 2.44409 24.4348 2.4646 24.5715 2.4646C24.6809 2.4646 24.7971 2.44409 24.9201 2.40308C25.0432 2.36206 25.1457 2.30054 25.2278 2.21851C25.3098 2.13647 25.3713 2.04077 25.4123 1.9314C25.4533 1.82202 25.4738 1.69897 25.4738 1.56226C25.4738 1.48022 25.4533 1.38452 25.4123 1.27515C25.3713 1.16577 25.3098 1.04272 25.2278 0.906006ZM17.8449 9.10913L16.2043 6.19702C16.0949 5.95093 15.9104 5.80054 15.6506 5.74585C15.3908 5.69116 15.1379 5.73218 14.8918 5.8689C14.6457 6.00562 14.4953 6.19702 14.4406 6.44312C14.386 6.68921 14.427 6.9353 14.5637 7.1814L16.2043 10.0935C16.2863 10.2576 16.4026 10.3806 16.5529 10.4626C16.7033 10.5447 16.8606 10.5857 17.0246 10.5857C17.1067 10.5857 17.1887 10.5789 17.2707 10.5652C17.3528 10.5515 17.4348 10.5037 17.5168 10.4216C17.7356 10.2576 17.8791 10.0457 17.9475 9.78589C18.0158 9.52612 17.9817 9.30054 17.8449 9.10913ZM34.1281 5.8689C33.9367 5.73218 33.718 5.69116 33.4719 5.74585C33.2258 5.80054 33.0344 5.95093 32.8977 6.19702L31.257 9.10913C31.1203 9.35522 31.0862 9.60132 31.1545 9.84741C31.2229 10.0935 31.3664 10.2849 31.5852 10.4216C31.6672 10.449 31.7492 10.4832 31.8313 10.5242C31.9133 10.5652 31.9953 10.5857 32.0774 10.5857C32.2414 10.5857 32.3987 10.5447 32.549 10.4626C32.6994 10.3806 32.8156 10.2576 32.8977 10.0935L34.5793 7.1814C34.6887 6.9353 34.7092 6.68921 34.6408 6.44312C34.5725 6.19702 34.4016 6.00562 34.1281 5.8689Z" fill="white"/>
</svg>
