<svg width="43" height="40" viewBox="0 0 43 40" fill="none" xmlns="http://www.w3.org/2000/svg">
<path d="M39.3418 31.7595L32.5332 28.8064C32.4512 28.7791 32.3623 28.7175 32.2666 28.6218C32.1709 28.5261 32.0957 28.4099 32.041 28.2732H36.5938C36.6484 28.2732 37.0518 28.2732 37.8037 28.2732C38.5557 28.2732 39.3145 28.1091 40.0801 27.781C40.3535 27.6716 40.5928 27.5007 40.7979 27.2683C41.0029 27.0359 41.1465 26.7693 41.2285 26.4685C41.3105 26.1677 41.3311 25.8601 41.29 25.5457C41.249 25.2312 41.1328 24.9509 40.9414 24.7048C40.6133 24.24 40.2031 23.5974 39.7109 22.7771C39.2188 21.9841 38.7402 21.0681 38.2754 20.0291C37.8105 18.99 37.4004 17.8826 37.0449 16.7068C36.6895 15.5037 36.498 14.2869 36.4707 13.0564C36.4707 13.0291 36.416 12.5779 36.3066 11.7029C36.1973 10.8279 35.8691 9.85718 35.3223 8.79077C34.7754 7.72437 33.9277 6.75366 32.7793 5.87866C31.6309 5.00366 30.0176 4.55249 27.9395 4.52515C27.3379 4.52515 26.7568 4.57983 26.1963 4.68921C25.6357 4.79858 25.0957 4.94897 24.5762 5.14038C24.4668 4.8396 24.3301 4.54565 24.166 4.25854C24.002 3.97144 23.7969 3.69116 23.5508 3.41772C22.8125 2.59741 21.8623 1.97534 20.7002 1.55151C19.5381 1.12769 18.1777 0.915771 16.6191 0.915771C15.0332 0.915771 13.6592 1.12769 12.4971 1.55151C11.335 1.97534 10.3848 2.59741 9.64648 3.41772C8.82617 4.34741 8.375 5.29077 8.29297 6.2478C8.21094 7.20483 8.18359 7.77905 8.21094 7.97046V11.7029C7.99219 11.949 7.82129 12.2292 7.69824 12.5437C7.5752 12.8582 7.51367 13.1931 7.51367 13.5486V16.3376C7.51367 16.7478 7.60254 17.1443 7.78027 17.5271C7.95801 17.9099 8.21094 18.238 8.53906 18.5115C8.86719 19.7693 9.29785 20.8494 9.83105 21.7517C10.3643 22.6541 10.7539 23.2556 11 23.5564V25.8943C11 26.2224 10.9111 26.5369 10.7334 26.8376C10.5557 27.1384 10.3164 27.3708 10.0156 27.5349L3.78125 30.9392C2.76953 31.4861 1.96973 32.2585 1.38184 33.2566C0.793945 34.2546 0.5 35.3279 0.5 36.4763V39.4294H42.5V36.8455C42.5 35.7517 42.2197 34.7537 41.6592 33.8513C41.0986 32.949 40.3262 32.2517 39.3418 31.7595ZM31.3027 38.0349H1.89453V36.4763C1.89453 35.574 2.12695 34.7332 2.5918 33.9539C3.05664 33.1746 3.68555 32.5798 4.47852 32.1697L10.7129 28.7654C11.2324 28.4646 11.6426 28.0613 11.9434 27.5554C12.2441 27.0496 12.3945 26.4958 12.3945 25.8943V23.0642L12.2305 22.9001C12.2305 22.8728 11.916 22.3943 11.2871 21.4646C10.6582 20.5349 10.1797 19.3591 9.85156 17.9373L9.76953 17.6501L9.56445 17.5271C9.3457 17.3904 9.18164 17.2195 9.07227 17.0144C8.96289 16.8093 8.9082 16.5837 8.9082 16.3376V13.5486C8.9082 13.3298 8.94922 13.1316 9.03125 12.9539C9.11328 12.7761 9.22266 12.6189 9.35938 12.4822L9.60547 12.2771V7.92944V7.84741C9.60547 7.84741 9.61914 7.45776 9.64648 6.67847C9.67383 5.89917 10.0293 5.11304 10.7129 4.32007C11.2871 3.66382 12.0664 3.17163 13.0508 2.84351C14.0352 2.51538 15.2246 2.35132 16.6191 2.35132C17.9863 2.35132 19.1553 2.51538 20.126 2.84351C21.0967 3.17163 21.8828 3.66382 22.4844 4.32007C22.7578 4.64819 22.9766 4.98315 23.1406 5.32495C23.3047 5.66675 23.4141 6.00171 23.4688 6.32983C23.4961 6.35718 23.5098 6.37769 23.5098 6.39136C23.5098 6.40503 23.5098 6.42554 23.5098 6.45288C23.5098 6.48022 23.5166 6.50757 23.5303 6.53491C23.5439 6.56226 23.5508 6.5896 23.5508 6.61694C23.5508 6.64429 23.5508 6.67163 23.5508 6.69897C23.5508 6.72632 23.5508 6.75366 23.5508 6.78101C23.5508 6.78101 23.5576 6.79468 23.5713 6.82202C23.585 6.84937 23.5918 6.86304 23.5918 6.86304C23.5918 6.91772 23.5918 6.96558 23.5918 7.00659C23.5918 7.04761 23.5918 7.09546 23.5918 7.15015C23.5918 7.17749 23.5986 7.21167 23.6123 7.25269C23.626 7.2937 23.6328 7.32788 23.6328 7.35522C23.6328 7.35522 23.6328 7.36206 23.6328 7.37573C23.6328 7.3894 23.6328 7.39624 23.6328 7.39624C23.6328 7.42358 23.6328 7.45093 23.6328 7.47827C23.6328 7.50562 23.6328 7.53296 23.6328 7.5603C23.6328 7.64233 23.626 7.71069 23.6123 7.76538C23.5986 7.82007 23.5918 7.84741 23.5918 7.84741V12.2771L23.8379 12.5232C23.9746 12.6599 24.084 12.8103 24.166 12.9744C24.248 13.1384 24.2891 13.3298 24.2891 13.5486V16.3376C24.2891 16.6384 24.2002 16.9119 24.0225 17.158C23.8447 17.4041 23.6055 17.5681 23.3047 17.6501L22.9355 17.7732L22.8535 18.1013C22.6074 18.8396 22.3203 19.5437 21.9922 20.2136C21.6641 20.8835 21.2812 21.5193 20.8438 22.1208C20.7617 22.2576 20.666 22.3943 20.5566 22.531C20.4473 22.6677 20.3516 22.7771 20.2695 22.8591L20.1055 23.0642V25.9763C20.1055 26.0583 20.1055 26.1404 20.1055 26.2224C20.1055 26.3044 20.1191 26.3865 20.1465 26.4685C20.1465 26.4958 20.1465 26.5164 20.1465 26.53C20.1465 26.5437 20.1602 26.5642 20.1875 26.5916C20.1875 26.6462 20.1943 26.7146 20.208 26.7966C20.2217 26.8787 20.2422 26.947 20.2695 27.0017C20.2695 27.0291 20.2764 27.0496 20.29 27.0632C20.3037 27.0769 20.3105 27.0837 20.3105 27.0837C20.3379 27.1658 20.3652 27.241 20.3926 27.3093C20.4199 27.3777 20.4609 27.4529 20.5156 27.5349C20.5156 27.5349 20.5156 27.5486 20.5156 27.5759C20.5703 27.658 20.625 27.74 20.6797 27.822C20.7344 27.9041 20.8027 27.9861 20.8848 28.0681L21.0488 28.2732C21.1855 28.3826 21.3223 28.4919 21.459 28.6013C21.5957 28.7107 21.7461 28.7927 21.9102 28.8474L28.5957 32.2107C29.416 32.6208 30.0723 33.2224 30.5645 34.0154C31.0566 34.8083 31.3027 35.6697 31.3027 36.5994V38.0349ZM41.1055 38.0349H32.6973V36.5994C32.6973 35.3962 32.3828 34.2888 31.7539 33.2771C31.125 32.2654 30.2773 31.4861 29.2109 30.9392L24.4121 28.5603C24.4668 28.4236 24.501 28.28 24.5146 28.1296C24.5283 27.9792 24.5078 27.822 24.4531 27.658C24.3711 27.4119 24.2207 27.2205 24.002 27.0837C23.7832 26.947 23.5508 26.8787 23.3047 26.8787H21.7461C21.7188 26.8513 21.7051 26.8171 21.7051 26.7761C21.7051 26.7351 21.6914 26.7009 21.6641 26.6736C21.6367 26.6462 21.6162 26.6121 21.6025 26.571C21.5889 26.53 21.582 26.4822 21.582 26.4275C21.5547 26.3728 21.5342 26.3044 21.5205 26.2224C21.5068 26.1404 21.5 26.0583 21.5 25.9763V23.5974C21.582 23.488 21.6641 23.3787 21.7461 23.2693C21.8281 23.1599 21.9102 23.0505 21.9922 22.9412C22.4297 22.3123 22.8193 21.6628 23.1611 20.9929C23.5029 20.323 23.8105 19.6189 24.084 18.8806C24.5762 18.6345 24.9658 18.2859 25.2529 17.8347C25.54 17.3835 25.6836 16.8845 25.6836 16.3376V13.5486C25.6836 13.1931 25.6289 12.8582 25.5195 12.5437C25.4102 12.2292 25.2324 11.949 24.9863 11.7029V7.97046C25.0137 7.88843 25.0273 7.71069 25.0273 7.43726C25.0273 7.16382 25 6.84937 24.9453 6.4939C25.3828 6.30249 25.8545 6.15894 26.3604 6.06323C26.8662 5.96753 27.3926 5.91968 27.9395 5.91968C29.6621 5.94702 31.002 6.31616 31.959 7.0271C32.916 7.73804 33.627 8.53101 34.0918 9.40601C34.5566 10.281 34.8438 11.1013 34.9531 11.8669C35.0352 12.6052 35.0762 13.0154 35.0762 13.0974C35.1035 14.4099 35.3086 15.7087 35.6914 16.9939C36.0469 18.2517 36.4707 19.4343 36.9629 20.5417C37.4551 21.6492 37.9609 22.6267 38.4805 23.4744C39 24.322 39.4375 24.9919 39.793 25.4841C39.8477 25.5662 39.8818 25.6619 39.8955 25.7712C39.9092 25.8806 39.9023 25.9763 39.875 26.0583C39.875 26.1404 39.8477 26.2224 39.793 26.3044C39.7383 26.3865 39.6426 26.4548 39.5059 26.5095C38.9316 26.7556 38.3232 26.8787 37.6807 26.8787C37.0381 26.8787 36.7031 26.8787 36.6758 26.8787H31.8359C31.6172 26.8787 31.4121 26.9333 31.2207 27.0427C31.0293 27.1521 30.8652 27.3025 30.7285 27.4939C30.6191 27.6853 30.5576 27.8904 30.5439 28.1091C30.5303 28.3279 30.5781 28.533 30.6875 28.7244C30.7969 28.9431 30.9541 29.1824 31.1592 29.4421C31.3643 29.7019 31.6172 29.9138 31.918 30.0779L38.7676 33.031C39.4785 33.3865 40.0459 33.906 40.4697 34.5896C40.8936 35.2732 41.1055 36.0251 41.1055 36.8455V38.0349Z" fill="white"/>
</svg>
