<svg width="41" height="41" viewBox="0 0 41 41" fill="none" xmlns="http://www.w3.org/2000/svg">
<path d="M38.095 24.5931C39.4427 26.3002 40.2513 28.4564 40.1615 30.7025C40.1615 36.2728 35.6693 40.765 30.099 40.765C27.8529 40.765 25.6966 40.0463 23.9896 38.6986C22.7318 38.9681 21.3841 39.1478 20.0365 39.1478C9.88411 39.1478 1.61848 30.8822 1.61848 20.64C1.61848 19.3822 1.79817 18.0345 2.0677 16.7767C0.720045 15.0697 0.00129509 12.9135 0.00129509 10.5775C0.00129509 5.09705 4.49348 0.515015 10.0638 0.515015C12.3099 0.515015 14.4661 1.32361 16.1732 2.67126C17.431 2.40173 18.7786 2.22205 20.1263 2.22205C30.2786 2.22205 38.5443 10.4877 38.5443 20.64C38.5443 21.9877 38.3646 23.3353 38.095 24.5931ZM20.6654 32.8588C25.6068 32.8588 30.7279 30.3431 30.7279 25.0424C30.7279 20.4603 26.2357 18.933 22.5521 18.1244C18.2396 17.0463 16.3529 16.8666 16.3529 15.1595C16.3529 13.722 17.7904 13.0931 20.1263 13.0931C24.2591 13.0931 24.349 16.1478 26.8646 16.1478C28.5716 16.1478 29.5599 14.8002 29.5599 13.2728C29.5599 10.2181 24.5286 8.24158 19.5872 8.24158C15.095 8.24158 9.79426 10.2181 9.79426 15.6088C9.79426 21.4486 14.8255 21.9877 20.3958 23.4252C22.7318 23.9642 24.1693 24.2338 24.1693 25.9408C24.1693 27.2885 22.6419 28.2767 20.3958 28.2767C15.5443 28.2767 15.2747 24.2338 12.4896 24.2338C10.6029 24.2338 9.79426 25.5814 9.79426 27.0189C9.79426 30.2533 14.7357 32.8588 20.6654 32.8588Z" fill="white"/>
</svg>
