<svg width="18" height="18" viewBox="0 0 18 18" fill="none" xmlns="http://www.w3.org/2000/svg">
<path d="M17.0241 10.7188C17.6101 11.4609 17.9616 12.3984 17.9226 13.375C17.9226 15.7969 15.9694 17.75 13.5476 17.75C12.571 17.75 11.6335 17.4375 10.8913 16.8516C10.3444 16.9688 9.7585 17.0469 9.17256 17.0469C4.7585 17.0469 1.16475 13.4531 1.16475 9C1.16475 8.45312 1.24287 7.86719 1.36006 7.32031C0.774121 6.57812 0.461621 5.64062 0.461621 4.625C0.461621 2.24219 2.41475 0.25 4.83662 0.25C5.81318 0.25 6.75068 0.601562 7.49287 1.1875C8.03975 1.07031 8.62568 0.992188 9.21162 0.992188C13.6257 0.992188 17.2194 4.58594 17.2194 9C17.2194 9.58594 17.1413 10.1719 17.0241 10.7188ZM9.446 14.3125C11.5944 14.3125 13.821 13.2188 13.821 10.9141C13.821 8.92188 11.8679 8.25781 10.2663 7.90625C8.39131 7.4375 7.571 7.35938 7.571 6.61719C7.571 5.99219 8.196 5.71875 9.21162 5.71875C11.0085 5.71875 11.0476 7.04688 12.1413 7.04688C12.8835 7.04688 13.3132 6.46094 13.3132 5.79688C13.3132 4.46875 11.1257 3.60938 8.97725 3.60938C7.02412 3.60938 4.71943 4.46875 4.71943 6.8125C4.71943 9.35156 6.90693 9.58594 9.32881 10.2109C10.3444 10.4453 10.9694 10.5625 10.9694 11.3047C10.9694 11.8906 10.3054 12.3203 9.32881 12.3203C7.21943 12.3203 7.10225 10.5625 5.89131 10.5625C5.071 10.5625 4.71943 11.1484 4.71943 11.7734C4.71943 13.1797 6.86787 14.3125 9.446 14.3125Z" fill="white"/>
</svg>
