<svg width="47" height="35" viewBox="0 0 47 35" fill="none" xmlns="http://www.w3.org/2000/svg">
<path d="M41.5444 15.767C40.7658 15.3776 39.8224 15.153 38.7144 15.0931C37.6063 15.0332 37.0223 15.0033 36.9624 15.0033C36.7528 15.0033 36.5881 15.0632 36.4683 15.183C36.3485 15.3028 36.2886 15.4675 36.2886 15.6771C36.2886 15.8568 36.3485 16.014 36.4683 16.1488C36.5881 16.2836 36.7528 16.351 36.9624 16.351C37.3218 16.351 37.9432 16.3884 38.8267 16.4633C39.7101 16.5381 40.4214 16.7103 40.9604 16.9799C41.0203 17.0098 41.0728 17.0323 41.1177 17.0472C41.1626 17.0622 41.215 17.0697 41.2749 17.0697C41.3947 17.0697 41.507 17.0323 41.6118 16.9574C41.7166 16.8825 41.799 16.7852 41.8589 16.6654C41.9487 16.5157 41.9637 16.351 41.9038 16.1713C41.8439 15.9916 41.7241 15.8568 41.5444 15.767ZM44.9136 25.3802L42.1284 24.5717C42.0685 24.5717 42.0236 24.5417 41.9937 24.4818C41.9637 24.4219 41.9487 24.362 41.9487 24.3021V23.3588C42.0685 23.2989 42.1808 23.224 42.2856 23.1342C42.3905 23.0443 42.4878 22.9545 42.5776 22.8646C43.0568 22.3855 43.4312 21.8389 43.7007 21.225C43.9702 20.611 44.105 19.9597 44.105 19.2709V17.9681L44.3745 17.4291C44.5243 17.1595 44.6366 16.8601 44.7114 16.5306C44.7863 16.2012 44.8237 15.8718 44.8237 15.5424V12.0834C44.8237 11.8737 44.7563 11.709 44.6216 11.5892C44.4868 11.4694 44.3296 11.4095 44.1499 11.4095H37.6812C36.4832 11.4095 35.465 11.8213 34.6265 12.6449C33.7879 13.4685 33.3687 14.4792 33.3687 15.6771V15.722C33.3687 15.9916 33.4061 16.2611 33.481 16.5306C33.5558 16.8002 33.6532 17.0547 33.7729 17.2943L34.0874 17.9681V19.0912C34.0874 19.9597 34.2896 20.7683 34.6938 21.517C35.0981 22.2657 35.6297 22.8646 36.2886 23.3138V24.3021C36.2886 24.392 36.2586 24.4594 36.1987 24.5043C36.1388 24.5492 35.9741 24.6016 35.7046 24.6615L34.3569 25.0658L30.4038 23.6283C30.4338 23.5385 30.4338 23.4486 30.4038 23.3588C30.3739 23.2689 30.314 23.1941 30.2241 23.1342L28.9663 21.7865V19.5853C29.0562 19.5254 29.131 19.473 29.1909 19.4281C29.2508 19.3832 29.3107 19.3308 29.3706 19.2709C30.1792 18.5222 30.8006 17.6462 31.2349 16.6429C31.6691 15.6397 31.8862 14.599 31.8862 13.5209V11.724C32.1258 11.2149 32.3055 10.6833 32.4253 10.1293C32.5451 9.57524 32.605 9.01371 32.605 8.4447V1.2572C32.605 1.07751 32.5376 0.920288 32.4028 0.785522C32.2681 0.650757 32.1108 0.583374 31.9312 0.583374H21.8237C20.0568 0.583374 18.5444 1.21228 17.2866 2.47009C16.0288 3.72791 15.3999 5.24027 15.3999 7.0072V8.4447C15.3999 9.01371 15.4598 9.57524 15.5796 10.1293C15.6994 10.6833 15.8791 11.2149 16.1187 11.724V13.2513C16.1187 14.5092 16.3807 15.6846 16.9048 16.7777C17.4289 17.8708 18.1252 18.7917 18.9937 19.5404V21.7865L17.7358 23.1342C17.6759 23.1941 17.631 23.2689 17.6011 23.3588C17.5711 23.4486 17.5562 23.5385 17.5562 23.6283L13.4233 25.1556C13.2736 25.2155 13.1239 25.2829 12.9741 25.3578C12.8244 25.4327 12.6896 25.515 12.5698 25.6049L11.9409 25.2455C12.8993 24.8262 13.5656 24.3845 13.9399 23.9203C14.3143 23.4561 14.5015 23.209 14.5015 23.1791C14.5614 23.0892 14.5913 22.9919 14.5913 22.8871C14.5913 22.7823 14.5614 22.67 14.5015 22.5502C14.2619 22.071 14.1121 21.4346 14.0522 20.641C13.9924 19.8474 13.9474 19.0912 13.9175 18.3724C13.9175 18.1329 13.91 17.9008 13.895 17.6761C13.88 17.4515 13.8726 17.2494 13.8726 17.0697C13.7528 15.4525 13.1463 14.1049 12.0532 13.0267C10.9601 11.9486 9.6499 11.4095 8.12256 11.4095C6.62516 11.4095 5.32992 11.9486 4.23682 13.0267C3.14372 14.1049 2.53727 15.4525 2.41748 17.0697C2.41748 17.2494 2.40999 17.4515 2.39502 17.6761C2.38005 17.9008 2.37256 18.1329 2.37256 18.3724C2.34261 19.0912 2.29769 19.8474 2.23779 20.641C2.1779 21.4346 2.02816 22.071 1.78857 22.5502C1.72868 22.67 1.69873 22.7823 1.69873 22.8871C1.69873 22.9919 1.72868 23.0892 1.78857 23.1791C1.78857 23.209 1.97575 23.4561 2.3501 23.9203C2.72445 24.3845 3.39079 24.8262 4.34912 25.2455L2.55225 26.1439C2.07308 26.3835 1.69124 26.7354 1.40674 27.1996C1.12223 27.6638 0.97998 28.1654 0.97998 28.7045V33.6908C0.97998 33.8705 1.04736 34.0277 1.18213 34.1625C1.31689 34.2972 1.47412 34.3646 1.65381 34.3646C1.8335 34.3646 1.99072 34.2972 2.12549 34.1625C2.26025 34.0277 2.32764 33.8705 2.32764 33.6908V28.7045C2.32764 28.405 2.40251 28.1355 2.55225 27.8959C2.70199 27.6563 2.89665 27.4766 3.13623 27.3568L5.38232 26.2338L6.19092 26.9974C6.46045 27.237 6.76742 27.4242 7.11182 27.559C7.45622 27.6937 7.79313 27.7611 8.12256 27.7611C8.48193 27.7611 8.83382 27.6937 9.17822 27.559C9.52262 27.4242 9.82959 27.237 10.0991 26.9974L10.8628 26.2338L11.6265 26.5931C11.4468 26.8926 11.312 27.1996 11.2222 27.514C11.1323 27.8285 11.0874 28.1504 11.0874 28.4799V33.6908C11.0874 33.8705 11.1473 34.0277 11.2671 34.1625C11.3869 34.2972 11.5516 34.3646 11.7612 34.3646C11.9409 34.3646 12.0981 34.2972 12.2329 34.1625C12.3677 34.0277 12.4351 33.8705 12.4351 33.6908V28.4799C12.4351 28.0306 12.5623 27.6114 12.8169 27.222C13.0715 26.8327 13.4233 26.5632 13.8726 26.4135L18.23 24.8412L20.0718 27.5365C20.1916 27.7162 20.3413 27.8584 20.521 27.9633C20.7007 28.0681 20.8804 28.1355 21.0601 28.1654C21.09 28.1654 21.12 28.1654 21.1499 28.1654C21.1798 28.1654 21.2098 28.1654 21.2397 28.1654C21.4194 28.1654 21.5916 28.1355 21.7563 28.0756C21.9211 28.0157 22.0633 27.9108 22.1831 27.7611L23.3062 26.6381V33.6908C23.3062 33.8705 23.3735 34.0277 23.5083 34.1625C23.6431 34.2972 23.8003 34.3646 23.98 34.3646C24.1597 34.3646 24.3169 34.2972 24.4517 34.1625C24.5864 34.0277 24.6538 33.8705 24.6538 33.6908V26.6381L25.7769 27.7611C25.8966 27.9108 26.0464 28.0157 26.2261 28.0756C26.4058 28.1355 26.5854 28.1654 26.7651 28.1654C26.7951 28.1654 26.8175 28.1654 26.8325 28.1654C26.8475 28.1654 26.87 28.1654 26.8999 28.1654C27.1095 28.1355 27.3042 28.0681 27.4839 27.9633C27.6636 27.8584 27.8133 27.7162 27.9331 27.5365L29.73 24.8412L34.0874 26.4135C34.5366 26.5632 34.896 26.8327 35.1655 27.222C35.4351 27.6114 35.5698 28.0306 35.5698 28.4799V33.6908C35.5698 33.8705 35.6372 34.0277 35.772 34.1625C35.9067 34.2972 36.064 34.3646 36.2437 34.3646C36.4233 34.3646 36.5806 34.2972 36.7153 34.1625C36.8501 34.0277 36.9175 33.8705 36.9175 33.6908V28.4799C36.9175 28.0306 36.8276 27.5889 36.6479 27.1547C36.4683 26.7204 36.2287 26.3386 35.9292 26.0092L36.064 25.9642C36.1538 25.9343 36.2511 25.9043 36.356 25.8744C36.4608 25.8444 36.5731 25.7995 36.6929 25.7396L38.4448 27.4916V33.6908C38.4448 33.8705 38.5047 34.0277 38.6245 34.1625C38.7443 34.2972 38.909 34.3646 39.1187 34.3646C39.2983 34.3646 39.4556 34.2972 39.5903 34.1625C39.7251 34.0277 39.7925 33.8705 39.7925 33.6908V27.4916L41.4995 25.7845C41.5295 25.7845 41.5669 25.7995 41.6118 25.8295C41.6567 25.8594 41.7091 25.8744 41.769 25.8744L44.5542 26.683C44.8836 26.7728 45.1457 26.9525 45.3403 27.222C45.535 27.4916 45.6323 27.7911 45.6323 28.1205V33.6908C45.6323 33.8705 45.6997 34.0277 45.8345 34.1625C45.9692 34.2972 46.1265 34.3646 46.3062 34.3646C46.4858 34.3646 46.6431 34.2972 46.7778 34.1625C46.9126 34.0277 46.98 33.8705 46.98 33.6908V28.1205C46.98 27.4916 46.7853 26.9226 46.396 26.4135C46.0067 25.9043 45.5125 25.5599 44.9136 25.3802ZM5.29248 24.1674C4.66357 23.9577 4.18441 23.7181 3.85498 23.4486C3.52555 23.1791 3.28597 22.9545 3.13623 22.7748C3.22607 22.5352 3.30094 22.2806 3.36084 22.0111C3.42074 21.7416 3.48063 21.472 3.54053 21.2025C3.72021 21.6218 3.9598 22.0186 4.25928 22.3929C4.55876 22.7673 4.90316 23.0892 5.29248 23.3588V24.1674ZM9.15576 26.0092C8.88623 26.2787 8.54932 26.4135 8.14502 26.4135C7.74072 26.4135 7.40381 26.2787 7.13428 26.0092L6.50537 25.4252C6.53532 25.3054 6.56527 25.1931 6.59521 25.0883C6.62516 24.9834 6.64014 24.8711 6.64014 24.7513V24.0326C6.87972 24.1224 7.12679 24.1823 7.38135 24.2123C7.6359 24.2422 7.88298 24.2572 8.12256 24.2572C8.39209 24.2572 8.65413 24.2422 8.90869 24.2123C9.16325 24.1823 9.39534 24.1224 9.60498 24.0326V24.7513C9.60498 24.8711 9.61995 24.9834 9.6499 25.0883C9.67985 25.1931 9.72477 25.3054 9.78467 25.4252L9.15576 26.0092ZM8.12256 22.9095C7.13428 22.9095 6.28076 22.5502 5.56201 21.8314C4.84326 21.1127 4.48389 20.2592 4.48389 19.2709C4.48389 19.0912 4.4165 18.934 4.28174 18.7992C4.14697 18.6644 3.98975 18.597 3.81006 18.597C3.78011 18.597 3.75765 18.597 3.74268 18.597C3.7277 18.597 3.72021 18.597 3.72021 18.597C3.72021 18.5671 3.72021 18.5372 3.72021 18.5072C3.72021 18.4773 3.72021 18.4473 3.72021 18.4174C3.72021 18.2077 3.7277 17.9906 3.74268 17.766C3.75765 17.5414 3.76514 17.3392 3.76514 17.1595C3.79508 16.5606 3.92985 15.9916 4.16943 15.4525C4.40902 14.9135 4.72347 14.4343 5.11279 14.015C5.53206 13.5957 5.99626 13.2813 6.50537 13.0717C7.01449 12.862 7.55355 12.7572 8.12256 12.7572C8.69157 12.7572 9.23812 12.862 9.76221 13.0717C10.2863 13.2813 10.743 13.5957 11.1323 14.015C11.5516 14.4343 11.8735 14.9135 12.0981 15.4525C12.3228 15.9916 12.465 16.5606 12.5249 17.1595C12.5249 17.3392 12.5324 17.5414 12.5474 17.766C12.5623 17.9906 12.5698 18.2077 12.5698 18.4174C12.5698 18.4473 12.5698 18.4698 12.5698 18.4847C12.5698 18.4997 12.5698 18.5222 12.5698 18.5521C12.2104 17.9831 11.7463 17.4965 11.1772 17.0922C10.6082 16.6879 9.96436 16.3659 9.24561 16.1263C8.5568 15.9167 7.96533 15.7969 7.47119 15.767C6.97705 15.737 6.71501 15.722 6.68506 15.722C6.59521 15.722 6.51286 15.737 6.43799 15.767C6.36312 15.7969 6.28076 15.8418 6.19092 15.9017L4.97803 17.1595C4.85824 17.3093 4.79834 17.474 4.79834 17.6537C4.79834 17.8334 4.87321 17.9981 5.02295 18.1478C5.14274 18.2676 5.29997 18.3275 5.49463 18.3275C5.68929 18.3275 5.84652 18.2526 5.96631 18.1029L6.99951 17.0697C7.41878 17.0996 8.17497 17.2644 9.26807 17.5638C10.3612 17.8633 11.1922 18.627 11.7612 19.8549C11.6115 20.7233 11.1997 21.4496 10.5259 22.0336C9.85205 22.6176 9.05094 22.9095 8.12256 22.9095ZM10.9526 24.1674V23.4037C11.3719 23.1342 11.7313 22.8122 12.0308 22.4379C12.3302 22.0635 12.5698 21.6517 12.7495 21.2025C12.7795 21.472 12.8319 21.7416 12.9067 22.0111C12.9816 22.2806 13.064 22.5352 13.1538 22.7748C13.0041 22.9545 12.757 23.1791 12.4126 23.4486C12.0682 23.7181 11.5815 23.9577 10.9526 24.1674ZM17.4663 13.2513V11.5892C17.4663 11.5293 17.4588 11.4769 17.4438 11.432C17.4289 11.3871 17.4064 11.3347 17.3765 11.2748C17.1668 10.8256 17.0096 10.3689 16.9048 9.90466C16.8 9.44047 16.7476 8.95382 16.7476 8.4447V7.0072C16.7476 5.59965 17.2417 4.40173 18.23 3.41345C19.2183 2.42517 20.4162 1.93103 21.8237 1.93103H31.2573V8.4447C31.2573 8.95382 31.1974 9.44047 31.0776 9.90466C30.9578 10.3689 30.7931 10.8256 30.5835 11.2748C30.5535 11.3347 30.5386 11.3871 30.5386 11.432C30.5386 11.4769 30.5386 11.5293 30.5386 11.5892V13.5209C30.5386 14.4193 30.3589 15.2803 29.9995 16.1039C29.6401 16.9275 29.131 17.6537 28.4722 18.2826C28.3823 18.3425 28.2925 18.4099 28.2026 18.4847C28.1128 18.5596 28.0229 18.627 27.9331 18.6869C27.9331 18.6869 27.9331 18.6944 27.9331 18.7094C27.9331 18.7243 27.9331 18.7318 27.9331 18.7318C27.3042 19.181 26.6154 19.5179 25.8667 19.7426C25.118 19.9672 24.3394 20.0645 23.5308 20.0345C21.8237 19.9148 20.3862 19.2035 19.2183 17.9008C18.0503 16.598 17.4663 15.0482 17.4663 13.2513ZM21.2397 26.8177C21.2397 26.8177 21.2248 26.8177 21.1948 26.8177L19.0835 23.6732L19.7573 22.9545L22.9468 25.1107L21.2397 26.8177ZM23.98 24.2123L20.3413 21.7416V20.4838C20.8205 20.7233 21.3221 20.918 21.8462 21.0677C22.3703 21.2175 22.9168 21.3223 23.4858 21.3822C23.5757 21.3822 23.658 21.3822 23.7329 21.3822C23.8078 21.3822 23.8901 21.3822 23.98 21.3822C24.6388 21.3822 25.2752 21.3073 25.8892 21.1576C26.5031 21.0079 27.0796 20.7832 27.6187 20.4838V21.7416L23.98 24.2123ZM26.8101 26.8177C26.8101 26.8177 26.8026 26.8177 26.7876 26.8177C26.7726 26.8177 26.7651 26.8177 26.7651 26.8177C26.7651 26.8177 26.7577 26.8177 26.7427 26.8177C26.7277 26.8177 26.7202 26.8177 26.7202 26.8177L25.0581 25.1107L28.2026 22.9545L28.8765 23.6732L26.8101 26.8177ZM39.1187 26.2338L37.5913 24.7064C37.5913 24.6465 37.5988 24.5866 37.6138 24.5267C37.6287 24.4668 37.6362 24.392 37.6362 24.3021V24.0326C37.8459 24.0925 38.0555 24.1449 38.2651 24.1898C38.4748 24.2347 38.6994 24.2572 38.939 24.2572C38.9689 24.2572 38.9989 24.2572 39.0288 24.2572C39.0588 24.2572 39.0887 24.2572 39.1187 24.2572C39.3582 24.2572 39.6053 24.2422 39.8599 24.2123C40.1144 24.1823 40.3615 24.1224 40.6011 24.0326V24.3021C40.6011 24.362 40.6011 24.4294 40.6011 24.5043C40.6011 24.5791 40.616 24.6465 40.646 24.7064L39.1187 26.2338ZM41.6343 21.8763C41.2749 22.2357 40.8706 22.5052 40.4214 22.6849C39.9722 22.8646 39.493 22.9395 38.9839 22.9095C38.0256 22.8796 37.1945 22.4903 36.4907 21.7416C35.7869 20.9929 35.4351 20.1094 35.4351 19.0912V17.8334C35.4351 17.7735 35.4351 17.7211 35.4351 17.6761C35.4351 17.6312 35.4201 17.5788 35.3901 17.5189L34.9858 16.7103C34.896 16.5306 34.8286 16.3584 34.7837 16.1937C34.7388 16.029 34.7163 15.8718 34.7163 15.722V15.6771C34.7163 14.8685 35.0083 14.1797 35.5923 13.6107C36.1763 13.0417 36.8726 12.7572 37.6812 12.7572H43.4761V15.5424C43.4761 15.752 43.4461 15.9691 43.3862 16.1937C43.3263 16.4183 43.2515 16.6355 43.1616 16.8451L42.8022 17.5189C42.8022 17.5788 42.7948 17.6312 42.7798 17.6761C42.7648 17.7211 42.7573 17.7735 42.7573 17.8334V19.2709C42.7573 19.78 42.66 20.2592 42.4653 20.7084C42.2707 21.1576 41.9937 21.5469 41.6343 21.8763ZM43.4312 28.6595C43.2515 28.6595 43.0942 28.7269 42.9595 28.8617C42.8247 28.9965 42.7573 29.1537 42.7573 29.3334V33.6908C42.7573 33.8705 42.8247 34.0277 42.9595 34.1625C43.0942 34.2972 43.2515 34.3646 43.4312 34.3646C43.6108 34.3646 43.7681 34.2972 43.9028 34.1625C44.0376 34.0277 44.105 33.8705 44.105 33.6908V29.3334C44.105 29.1537 44.0376 28.9965 43.9028 28.8617C43.7681 28.7269 43.6108 28.6595 43.4312 28.6595ZM4.52881 29.558C4.34912 29.558 4.19189 29.6254 4.05713 29.7601C3.92236 29.8949 3.85498 30.0521 3.85498 30.2318V33.6908C3.85498 33.8705 3.92236 34.0277 4.05713 34.1625C4.19189 34.2972 4.34912 34.3646 4.52881 34.3646C4.7085 34.3646 4.86572 34.2972 5.00049 34.1625C5.13525 34.0277 5.20264 33.8705 5.20264 33.6908V30.2318C5.20264 30.0521 5.13525 29.8949 5.00049 29.7601C4.86572 29.6254 4.7085 29.558 4.52881 29.558ZM29.5054 8.71423C28.2476 7.42647 26.533 6.77511 24.3618 6.76013C22.1906 6.74516 20.5509 6.81254 19.4429 6.96228C19.1134 7.02218 18.8364 7.1794 18.6118 7.43396C18.3872 7.68852 18.2749 7.99548 18.2749 8.35486V9.8822C18.2749 10.0918 18.3423 10.2566 18.4771 10.3763C18.6118 10.4961 18.769 10.556 18.9487 10.556C19.1284 10.556 19.2856 10.4961 19.4204 10.3763C19.5552 10.2566 19.6226 10.0918 19.6226 9.8822V8.35486C19.6226 8.32491 19.6226 8.30994 19.6226 8.30994C19.6226 8.30994 19.6375 8.30994 19.6675 8.30994C20.0868 8.25004 20.6932 8.18266 21.4868 8.10779C22.2804 8.03292 23.1265 8.02543 24.0249 8.08533C25.0731 8.14522 25.979 8.30994 26.7427 8.57947C27.5063 8.849 28.1128 9.20837 28.562 9.65759C28.6818 9.77738 28.839 9.83728 29.0337 9.83728C29.2284 9.83728 29.3856 9.77738 29.5054 9.65759C29.6252 9.5378 29.6851 9.38058 29.6851 9.18591C29.6851 8.99125 29.6252 8.83402 29.5054 8.71423ZM16.0737 30.142C15.894 30.142 15.7368 30.2019 15.6021 30.3217C15.4673 30.4414 15.3999 30.6062 15.3999 30.8158V33.6908C15.3999 33.8705 15.4673 34.0277 15.6021 34.1625C15.7368 34.2972 15.894 34.3646 16.0737 34.3646C16.2534 34.3646 16.4106 34.2972 16.5454 34.1625C16.6802 34.0277 16.7476 33.8705 16.7476 33.6908V30.8158C16.7476 30.6062 16.6802 30.4414 16.5454 30.3217C16.4106 30.2019 16.2534 30.142 16.0737 30.142ZM31.9312 30.142C31.7215 30.142 31.5568 30.2019 31.437 30.3217C31.3172 30.4414 31.2573 30.6062 31.2573 30.8158V33.6908C31.2573 33.8705 31.3172 34.0277 31.437 34.1625C31.5568 34.2972 31.7215 34.3646 31.9312 34.3646C32.1108 34.3646 32.2681 34.2972 32.4028 34.1625C32.5376 34.0277 32.605 33.8705 32.605 33.6908V30.8158C32.605 30.6062 32.5376 30.4414 32.4028 30.3217C32.2681 30.2019 32.1108 30.142 31.9312 30.142Z" fill="white"/>
</svg>
