<svg width="18" height="18" viewBox="0 0 18 18" fill="none" xmlns="http://www.w3.org/2000/svg">
<path d="M15.3054 2.82812C16.946 4.46875 17.9616 6.61719 17.9616 8.96094C17.9616 13.7266 13.9772 17.6328 9.17256 17.6328C7.72725 17.6328 6.321 17.2422 5.03193 16.5781L0.461621 17.75L1.67256 13.2578C0.930371 11.9688 0.500684 10.4844 0.500684 8.92188C0.500684 4.15625 4.40693 0.25 9.17256 0.25C11.5163 0.25 13.7038 1.1875 15.3054 2.82812ZM9.17256 16.1484C13.1569 16.1484 16.4772 12.9062 16.4772 8.96094C16.4772 7.00781 15.6569 5.21094 14.2897 3.84375C12.9226 2.47656 11.1257 1.73438 9.21162 1.73438C5.22725 1.73438 1.98506 4.97656 1.98506 8.92188C1.98506 10.2891 2.37568 11.6172 3.07881 12.7891L3.27412 13.0625L2.53193 15.7188L5.26631 14.9766L5.50068 15.1328C6.6335 15.7969 7.8835 16.1484 9.17256 16.1484ZM13.1569 10.7578C13.3522 10.875 13.5085 10.9141 13.5476 11.0312C13.6257 11.1094 13.6257 11.5391 13.4304 12.0469C13.2351 12.5547 12.3757 13.0234 11.9851 13.0625C11.2819 13.1797 10.7351 13.1406 9.36787 12.5156C7.18037 11.5781 5.77412 9.39062 5.65693 9.27344C5.53975 9.11719 4.79756 8.10156 4.79756 7.00781C4.79756 5.95312 5.34443 5.44531 5.53975 5.21094C5.73506 4.97656 5.96943 4.9375 6.12568 4.9375C6.24287 4.9375 6.39912 4.9375 6.51631 4.9375C6.67256 4.9375 6.82881 4.89844 7.02412 5.32812C7.18037 5.75781 7.64912 6.8125 7.68818 6.92969C7.72725 7.04688 7.76631 7.16406 7.68818 7.32031C7.29756 8.14062 6.82881 8.10156 7.06318 8.49219C7.92256 9.9375 8.74287 10.4453 10.0319 11.0703C10.2272 11.1875 10.3444 11.1484 10.5007 11.0312C10.6179 10.875 11.0476 10.3672 11.1647 10.1719C11.321 9.9375 11.4772 9.97656 11.6726 10.0547C11.8679 10.1328 12.9226 10.6406 13.1569 10.7578Z" fill="white"/>
</svg>
